<svg xmlns="http://www.w3.org/2000/svg" xmlns:xlink="http://www.w3.org/1999/xlink" width="32" height="32" viewBox="0 0 32 32">
    <defs>
        <path id="a" d="M10.645 6.774h7.736V23.22h-7.736z"/>
    </defs>
    <g fill="none" fill-rule="evenodd" opacity=".9" transform="translate(1 1)">
        <circle cx="15" cy="15" r="15" stroke="#FFF" stroke-width=".968"/>
        <mask id="b" fill="#fff">
            <use xlink:href="#a"/>
        </mask>
        <path fill="#FEFEFE" d="M12.968 15.752h-1.944c-.027-.101-.033-2.643-.008-2.814h1.952v-.164-2.157c0-.493.069-.973.245-1.432.37-.964 1.048-1.588 1.983-1.926.456-.165.928-.24 1.408-.254.583-.017 1.164.01 1.744.068l.355.034c.024.088-.024 2.43-.055 2.635h-.14c-.516-.004-1.032-.009-1.548-.01-.182 0-.362.011-.54.063-.278.081-.463.26-.523.556a2.884 2.884 0 0 0-.059.534c-.006.646-.003 1.292-.002 1.939 0 .033.005.066.009.11h2.891c-.035.943-.084 1.872-.124 2.814h-2.77c-.014.375-.004.737-.006 1.098-.002.369 0 .737 0 1.105v5.468c-.094.027-2.655.036-2.867.01l-.001-.954V15.752z" mask="url(#b)"/>
    </g>
</svg>
