<svg xmlns="http://www.w3.org/2000/svg" xmlns:xlink="http://www.w3.org/1999/xlink" width="32" height="32" viewBox="0 0 32 32">
    <defs>
        <path id="a" d="M6.774 6.774h16.452v16.452H6.774z"/>
    </defs>
    <g fill="none" fill-rule="evenodd" opacity=".9" transform="translate(1 1)">
        <circle cx="15" cy="15" r="15" stroke="#FFF" stroke-width=".968"/>
        <mask id="b" fill="#fff">
            <use xlink:href="#a"/>
        </mask>
        <path fill="#FFF" d="M23.452 15.226c0 1.635-.018 2.767-.054 3.395-.071 1.485-.514 2.635-1.328 3.449-.814.814-1.964 1.257-3.449 1.328-.628.036-1.76.054-3.395.054s-2.767-.018-3.395-.054c-1.486-.071-2.635-.514-3.45-1.328-.813-.814-1.256-1.964-1.327-3.449-.036-.628-.054-1.76-.054-3.395s.018-2.767.054-3.395c.071-1.486.514-2.635 1.328-3.45.814-.813 1.963-1.256 3.449-1.327.628-.036 1.76-.054 3.395-.054s2.767.018 3.395.054c1.485.071 2.635.514 3.449 1.328.814.814 1.257 1.963 1.328 3.449.036.628.054 1.76.054 3.395m-8.226-6.748l-.82-.005a58.164 58.164 0 0 0-1.13 0c-.257.003-.601.014-1.033.032-.432.018-.8.053-1.103.107-.304.054-.56.12-.766.198-.357.143-.671.35-.943.621a2.779 2.779 0 0 0-.62.943 4.295 4.295 0 0 0-.199.766c-.054.303-.09.67-.107 1.103-.018.432-.029.776-.032 1.033-.004.258-.004.634 0 1.13l.005.82-.005.82c-.004.495-.004.872 0 1.13.003.256.014.6.032 1.033.018.432.053.8.107 1.103.054.303.12.559.198.766.143.357.35.67.621.942.272.272.586.479.943.622.207.078.462.144.766.198.303.053.67.089 1.103.107.432.018.776.028 1.033.032.258.003.634.003 1.13 0l.82-.005.82.005c.495.003.872.003 1.13 0 .256-.004.6-.014 1.033-.032.432-.018.8-.054 1.103-.107.303-.054.559-.12.766-.198.357-.143.671-.35.942-.622.272-.271.479-.585.622-.942.078-.207.144-.463.198-.766.053-.304.089-.671.107-1.103.018-.432.028-.777.032-1.034.003-.257.003-.634 0-1.13l-.005-.82.005-.819c.003-.496.003-.872 0-1.13a39.647 39.647 0 0 0-.032-1.033 8.489 8.489 0 0 0-.107-1.103 4.295 4.295 0 0 0-.198-.766 2.779 2.779 0 0 0-.622-.943 2.779 2.779 0 0 0-.942-.62 4.295 4.295 0 0 0-.766-.199 8.489 8.489 0 0 0-1.103-.107 39.648 39.648 0 0 0-1.034-.032 58.164 58.164 0 0 0-1.13 0l-.82.005m5.378 2.356a.949.949 0 0 1-.29.697.949.949 0 0 1-.696.289.949.949 0 0 1-.696-.29.949.949 0 0 1-.29-.696c0-.27.097-.503.29-.696a.949.949 0 0 1 .696-.289c.272 0 .504.096.696.29.193.192.29.424.29.695m-1.157 4.392c0 1.17-.41 2.167-1.232 2.988-.821.821-1.817 1.232-2.988 1.232s-2.167-.41-2.988-1.232c-.822-.821-1.232-1.817-1.232-2.988s.41-2.167 1.232-2.988c.82-.822 1.817-1.232 2.988-1.232 1.17 0 2.167.41 2.988 1.232.821.82 1.232 1.817 1.232 2.988m-1.478 0c0-.757-.268-1.403-.804-1.939a2.642 2.642 0 0 0-1.938-.803c-.757 0-1.403.268-1.939.803a2.642 2.642 0 0 0-.803 1.939c0 .757.268 1.403.803 1.938a2.642 2.642 0 0 0 1.939.804c.757 0 1.403-.268 1.938-.804a2.642 2.642 0 0 0 .804-1.938" mask="url(#b)"/>
    </g>
</svg>
