<svg xmlns="http://www.w3.org/2000/svg" xmlns:xlink="http://www.w3.org/1999/xlink" width="32" height="32" viewBox="0 0 32 32">
    <defs>
        <path id="a" d="M0 0h16.419v11.585H0z"/>
    </defs>
    <g fill="none" fill-rule="evenodd" opacity=".9" transform="translate(1 1)">
        <circle cx="15" cy="15" r="15" stroke="#FFF" stroke-width=".968"/>
        <g transform="translate(7 9)">
            <mask id="b" fill="#fff">
                <use xlink:href="#a"/>
            </mask>
            <path fill="#FEFEFE" d="M6.1 8.36V2.889l5.206 2.744L6.1 8.361m10.284-4.577c-.023-.712-.095-1.422-.305-2.107C15.83.859 15.09.299 14.24.219c-3.024-.286-6.054-.226-9.084-.18-1.003.014-2.005.107-3.006.19C1.184.307.448 1.015.26 1.992c-.136.7-.218 1.406-.233 2.12-.001.074-.018.147-.027.221v2.95c.022.31.026.624.07.932.078.564.137 1.137.283 1.685.222.836.988 1.386 1.842 1.466 3.014.284 6.034.225 9.052.18 1.014-.015 2.028-.104 3.038-.193.971-.086 1.688-.793 1.88-1.757.19-.952.249-1.915.253-2.881a81.931 81.931 0 0 0-.034-2.932" mask="url(#b)"/>
        </g>
    </g>
</svg>
